HIERARCHY
ROOT Hips
{
  OFFSET 2.26061 22.2878 23.7974
  CHANNELS 6 Xposition Yposition Zposition Zrotation Xrotation Yrotation
  JOINT LeftUpLeg
  {
    OFFSET 8.64259 1.95398 -2.38835
    CHANNELS 3 Zrotation Xrotation Yrotation
    JOINT LeftLeg
    {
      OFFSET 43.7702 0 0
      CHANNELS 3 Zrotation Xrotation Yrotation
      JOINT LeftFoot
      {
        OFFSET 40.6238 0 0
        CHANNELS 3 Zrotation Xrotation Yrotation
        JOINT LeftToeBase
        {
          OFFSET 12.7242 0 0
          CHANNELS 3 Zrotation Xrotation Yrotation
          End Site
          {
            OFFSET 0 0 0
          }
        }
      }
    }
  }
  JOINT RightUpLeg
  {
    OFFSET -8.2249 1.95398 -2.59336
    CHANNELS 3 Zrotation Xrotation Yrotation
    JOINT RightLeg
    {
      OFFSET 43.5653 0 0
      CHANNELS 3 Zrotation Xrotation Yrotation
      JOINT RightFoot
      {
        OFFSET 40.6238 0 0
        CHANNELS 3 Zrotation Xrotation Yrotation
        JOINT RightToeBase
        {
          OFFSET 12.7242 0 0
          CHANNELS 3 Zrotation Xrotation Yrotation
          End Site
          {
            OFFSET 0 0 0
          }
        }
      }
    }
  }
  JOINT Spine
  {
    OFFSET 0.165834 0.87714 6.61349
    CHANNELS 3 Zrotation Xrotation Yrotation
    JOINT Spine1
    {
      OFFSET 7.38963 1.71661e-005 0
      CHANNELS 3 Zrotation Xrotation Yrotation
      JOINT Spine2
      {
        OFFSET 11.9445 1.14441e-005 0
        CHANNELS 3 Zrotation Xrotation Yrotation
        JOINT Spine3
        {
          OFFSET 14.7254 4.19617e-005 0
          CHANNELS 3 Zrotation Xrotation Yrotation
          JOINT Spine4
          {
            OFFSET 10.9679 0 0
            CHANNELS 3 Zrotation Xrotation Yrotation
            JOINT RightShoulder
            {
              OFFSET 2.46616 -1.6653 3.69651
              CHANNELS 3 Zrotation Xrotation Yrotation
              JOINT RightArm
              {
                OFFSET 13.0012 0 0
                CHANNELS 3 Zrotation Xrotation Yrotation
                JOINT RightForeArm
                {
                  OFFSET 28.7848 1.52588e-005 0
                  CHANNELS 3 Zrotation Xrotation Yrotation
                  JOINT RightHand
                  {
                    OFFSET 26.5688 1.52588e-005 0
                    CHANNELS 3 Zrotation Xrotation Yrotation
                    End Site
                    {
                      OFFSET 0 0 0
                    }
                  }
                }
              }
            }
            JOINT LeftShoulder
            {
              OFFSET 2.38034 -1.29275 -3.7523
              CHANNELS 3 Zrotation Xrotation Yrotation
              JOINT LeftArm
              {
                OFFSET 16.3182 6.10351e-005 0
                CHANNELS 3 Zrotation Xrotation Yrotation
                JOINT LeftForeArm
                {
                  OFFSET 27.0901 0 0
                  CHANNELS 3 Zrotation Xrotation Yrotation
                  JOINT LeftHand
                  {
                    OFFSET 24.5451 1.52588e-005 0
                    CHANNELS 3 Zrotation Xrotation Yrotation
                    End Site
                    {
                      OFFSET 0 0 0
                    }
                  }
                }
              }
            }
            JOINT Neck
            {
              OFFSET 5.0226 -0.0266342 0
              CHANNELS 3 Zrotation Xrotation Yrotation
              JOINT Head
              {
                OFFSET 6.69363 2.86102e-005 0
                CHANNELS 3 Zrotation Xrotation Yrotation
                End Site
                {
                  OFFSET 0 0 0
                }
              }
            }
          }
        }
      }
    }
  }
}
MOTION
Frames:	7
Frame Time:	0.0416667
114.517 26.3684 117.273 11.2329 3.53066 43.3607 -144.119 49.9635 88.6898 -74.103 34.9586 -9.3975 51.3676 -5.53586 0.82177 48.7408 25.1938 38.6169 176.683 6.66118 84.3455 -23.0996 -15.133 -7.64352 46.223 2.389 2.33183 37.085 0.358936 -6.80938 -1.03861 7.48342 -90.005 11.9107 -2.06752 0.212527 0.241341 -2.05617 0.303348 -22.3067 -2.03579 -0.418943 -2.29404 -2.03578 -0.418947 92.8129 -33.4047 -100.169 -14.377 29.1591 -39.2107 102.248 -54.5586 -88.893 20.6377 -8.1143 -32.1626 -93.8108 -28.7944 65.5996 -74.2401 -86.9808 -95.7226 10.1477 11.2712 -128.062 18.7353 2.42897 9.09265 6.55356 -6.03291 -2.92381 46.1696 -5.83852 -1.40265 
107.12 24.9154 115.426 15.5257 4.87723 43.0117 -138.614 57.7345 87.3901 -88.1098 38.0723 -5.48468 51.0455 -5.71872 -0.155423 48.7009 24.7754 37.6105 175.782 4.2615 86.6701 -17.3572 -13.911 -5.44802 43.7557 2.49702 2.50906 37.9045 0.390689 -3.12209 -1.32447 7.16538 -89.5197 12.5577 -2.4023 1.23931 0.888257 -2.34544 1.34387 -21.6637 -2.66365 0.459573 -1.65107 -2.66365 0.459599 92.7933 -29.2937 -101.387 -8.35148 40.6148 -38.0264 157.925 -28.0473 -51.2089 6.9 -3.25993 -43.4442 -91.6712 -19.4962 65.4173 7.57623 -84.3297 -18.5863 10.4253 9.86351 -112.72 17.6333 1.74374 6.01842 -12.8273 -2.35195 -16.3999 62.9957 1.25482 3.78498 
100.7 22.5441 113.001 20.0115 5.36344 42.2954 -138.539 63.4362 89.3431 -99.1651 43.9491 -2.30683 50.6532 -6.76658 1.06981 50.0751 27.1908 38.6799 175.787 5.64825 87.3903 -24.1381 -9.96589 -5.05005 49.1812 -0.0628932 0.356472 43.032 1.45535 10.3006 -1.38561 6.93142 -89.1521 13.0317 -2.34313 1.98278 1.3612 -2.25362 2.08397 -21.1857 -2.83062 1.18668 -1.173 -2.83062 1.18667 92.5505 -27.2515 -102.535 -13.085 48.5044 -32.492 -55.246 27.4364 -106.646 -27.6511 12.8829 -29.9635 -92.8369 -15.5061 60.3807 31.076 -74.7667 -5.14179 10.6978 7.9092 -93.0061 17.458 1.33749 3.77364 -25.0496 0.153847 -22.1064 72.9458 3.6391 5.18197 
96.8717 19.4902 110.789 21.8499 6.64122 42.2242 -136.307 67.8558 89.6797 -107.35 46.4736 0.0108502 49.5488 -8.34681 0.490188 49.9334 26.7338 38.046 176.5 0.141719 86.9327 -22.8482 -14.3547 -6.07657 61.672 -5.14593 -3.00235 52.7037 3.05791 12.6838 -1.37008 6.48635 -89.0601 13.9212 -2.25705 2.18902 2.25022 -2.15857 2.28619 -20.2934 -2.81049 1.40935 -0.28078 -2.8105 1.40935 93.1997 -20.7087 -103.479 -17.978 50.5937 -23.9696 -21.895 6.58033 -118.153 -12.9409 -1.57465 3.38236 -92.7459 -11.4168 57.6911 32.4279 -68.9244 -5.55673 12.5145 5.21569 -84.0953 18.1355 1.27235 3.10931 -29.1129 2.13076 -28.2101 76.0789 7.58753 8.75037 
94.806 17.2987 109.651 20.4934 7.53611 40.6845 -133.232 69.0888 89.0126 -109.621 50.4202 0.281729 49.9948 -8.39353 -0.339445 50.9613 28.6188 38.9728 175.795 -4.80478 85.6766 -12.1581 -18.4639 -5.50168 68.1675 -9.00351 -4.87362 59.6247 2.85008 6.18743 -1.10222 6.15105 -88.9065 14.5859 -1.6424 2.43162 2.91359 -1.53382 2.50149 -19.6185 -2.29715 1.82578 0.394201 -2.29714 1.82579 96.1381 -9.85244 -100.303 -10.3509 54.2846 -21.9049 -22.8919 5.06022 -115.412 -12.2263 -0.627264 -0.346436 -94.5214 -8.83439 51.1426 49.0945 -62.8961 9.38696 8.58401 3.69188 -76.2746 25.1144 1.21962 0.983183 -26.6277 2.19733 -32.8286 73.8001 10.6855 12.6815 
93.9187 16.2789 109.267 19.6362 5.90758 40.395 -133.402 69.9679 92.599 -111.714 51.514 0.705071 49.7847 -8.75568 -0.226666 53.1164 29.7351 34.4471 176.356 -5.43763 85.1186 -13.9795 -21.7474 -6.19985 68.6597 -9.22826 -4.9428 62.0074 1.94554 1.11987 -0.660553 6.23223 -88.728 14.4118 -0.68188 2.65148 2.73824 -0.564558 2.6789 -19.781 -1.44705 2.32426 0.231669 -1.44703 2.32426 96.6258 12.2482 -116.911 -28.2726 61.1217 29.1883 -16.9088 -0.450771 -119.091 -15.1838 -0.738197 0.109368 -93.061 -6.12684 52.334 49.6007 -56.4795 22.4081 0.351422 -1.17252 -91.0769 40.7939 2.99204 3.49424 -16.3854 -2.04075 -31.9944 63.0405 9.21026 15.8475 
93.8977 16.4181 109.931 20.8171 6.87106 40.5529 -132.304 70.9368 90.4847 -113.087 47.5134 1.38215 50.9119 -7.41276 2.75306 55.1893 27.5933 22.6213 177.093 -4.66451 86.6192 -17.12 -21.2038 -6.85017 68.8099 -9.12094 -4.86034 62.0386 1.71114 0.136192 -0.718641 6.61947 -88.4211 13.6331 -0.6586 3.25081 1.95824 -0.514956 3.27662 -20.5509 -1.60476 2.90313 -0.5383 -1.60475 2.9031 89.9759 13.5555 -157.121 -78.4793 23.2654 74.9947 -12.1968 -7.85535 -121.038 -15.8347 -0.363436 -2.63139 -97.7149 -24.5686 55.3034 34.5596 -45.1639 26.5595 26.3215 -3.12582 -135.973 50.3326 9.09843 13.5365 -1.77052 -6.50565 -34.6684 49.6018 7.29459 17.9081 
